<svg xmlns="http://www.w3.org/2000/svg" width="49" height="48" fill="none" viewBox="0 0 49 48">
  <path fill-rule="evenodd" d="M11.607 0h25.5c6.213 0 11.25 5.037 11.25 11.25v25.5c0 6.213-5.037 11.25-11.25 11.25h-25.5C5.394 48 .357 42.963.357 36.75v-25.5C.357 5.037 5.394 0 11.607 0ZM6.826 33.544a.288.288 0 0 0 .28-.281l-.018-18.525c0-.113-.131-.263-.281-.263H4.782c-.15 0-.3.15-.3.263v18.525c0 .168.131.28.3.28h2.044Zm5.306 0a.288.288 0 0 0 .281-.281V14.738c0-.113-.131-.263-.281-.263h-2.025c-.15 0-.3.15-.3.263v18.525c0 .168.131.28.3.28h2.025Zm5.306 0a.288.288 0 0 0 .281-.281V14.738c0-.113-.13-.263-.28-.263h-2.026c-.15 0-.3.15-.3.263v18.525c0 .168.131.28.3.28h2.025Zm5.344 0a.288.288 0 0 0 .281-.281V14.738c0-.113-.131-.263-.281-.263h-2.025c-.15 0-.3.15-.3.263v18.525c0 .168.131.28.3.28h2.025Zm21.45-18.806c0-.15-.113-.3-.281-.3H25.93c-.112 0-.262.15-.262.3v2.08c0 .17.15.32.263.32H43.95c.168 0 .28-.15.28-.32v-2.08Zm0 5.493c0-.15-.113-.3-.281-.3H25.93c-.112 0-.262.15-.262.3v2.081c0 .17.15.32.263.32H43.95c.168 0 .28-.15.28-.32v-2.08Zm0 5.456c0-.15-.113-.3-.281-.3H25.93c-.112 0-.262.15-.262.3v2.082c0 .169.15.319.263.319H43.95c.168 0 .28-.15.28-.32v-2.08Zm0 5.457c0-.15-.113-.3-.281-.3H25.93c-.112 0-.262.15-.262.3v2.081c0 .169.15.319.263.319H43.95c.168 0 .28-.15.28-.319v-2.081Z" clip-rule="evenodd"/>
</svg>
