<svg xmlns="http://www.w3.org/2000/svg" width="71" height="48" fill="none" viewBox="0 0 71 48">
  <path d="M13.673 28.175a1.091 1.091 0 0 0-1.709 1.125C14.384 39.993 23.961 48 35.375 48c2.424 0 4.834-.367 7.147-1.09a1.091 1.091 0 0 0 .108-2.046A152.722 152.722 0 0 1 27.7 37.28a153.58 153.58 0 0 1-14.027-9.105Zm53.982 7.213a31.861 31.861 0 0 0-2.005-2.39 2.159 2.159 0 0 0-3.621.699c0 .022-.015.042-.024.064a2.147 2.147 0 0 0 .43 2.19c3.1 3.409 3.603 5.251 3.475 5.64-.273.304-2.325.94-7.93-.482a55.771 55.771 0 0 1-2.634-.744 62.253 62.253 0 0 1-1.881-.612 24.096 24.096 0 0 0 2.665-3.716l.07-.12A23.916 23.916 0 0 0 59.375 24c0-.865-.045-1.73-.136-2.59C57.934 9.385 47.729 0 35.375 0a23.914 23.914 0 0 0-14.51 4.894 24.192 24.192 0 0 0-6.249 7.07c-.021.039-.046.078-.07.118a23.94 23.94 0 0 0-1.885 4.162 68.712 68.712 0 0 1-1.471-1.319 53.56 53.56 0 0 1-1.967-1.91C5.191 8.89 4.711 6.797 4.838 6.41c.272-.304 2.119-.8 6.63.179a2.157 2.157 0 0 0 2.119-.724l.049-.06a2.146 2.146 0 0 0-1.182-3.468 32.374 32.374 0 0 0-3.243-.563c-4.19-.482-6.931.343-8.152 2.454-.442.761-.866 2.058-.37 3.9.731 2.736 3.341 6.055 7.036 9.532a75.89 75.89 0 0 0 3.834 3.36 112.656 112.656 0 0 0 5.325 4.102c.75.545 1.508 1.08 2.277 1.606a153.99 153.99 0 0 0 10.717 6.776c1.304.751 2.606 1.478 3.906 2.182 1.3.704 2.59 1.377 3.868 2.02 2.987 1.5 5.912 2.852 8.709 4.013 1.199.498 2.372.96 3.519 1.385a76.746 76.746 0 0 0 4.679 1.58l.15.046c3.508 1.044 6.466 1.594 8.792 1.636h.238c2.95 0 4.95-.87 5.942-2.59 1.24-2.13.557-4.954-2.026-8.387Z"/>
</svg>
