<svg xmlns="http://www.w3.org/2000/svg" width="45" height="48" fill="none" viewBox="0 0 45 48">
  <path d="M31.373 25.695v-3.39h3.39v3.39h-3.39Z"/>
  <path fill-rule="evenodd" d="m22.898.003 22.034 12.855v22.284L22.898 48 .864 35.142V12.858L22.898 0v.003ZM18.94 12.136A11.295 11.295 0 0 0 7.644 23.43v1.14a11.295 11.295 0 0 0 16.342 10.1l1.366-.678-1.518-3.034-1.363.678a7.901 7.901 0 0 1-11.437-7.064v-1.14a7.905 7.905 0 0 1 11.437-7.07l1.363.681 1.518-3.03-1.366-.682a11.28 11.28 0 0 0-5.047-1.196Zm9.044 3.39v3.39h-3.39v3.39h3.39v3.389h-3.39v3.39h3.39v3.39h3.39v-3.39h3.39v3.39h3.39v-3.39h3.39v-3.39h-3.39v-3.39h3.39v-3.39h-3.39v-3.39h-3.39v3.39h-3.39v-3.39h-3.39Z" clip-rule="evenodd"/>
</svg>
