<svg xmlns="http://www.w3.org/2000/svg" width="48" height="48" fill="none" viewBox="0 0 48 48">
  <path d="M22.286 8.571c-1.92 0-3.713.525-5.246 1.44a11.65 11.65 0 0 0-1.646-4.964 15.429 15.429 0 0 1 22.228 12.096h4.382c3.312 0 6 2.688 6 6V38.57a6 6 0 0 1-6.004 6H26.572a6 6 0 0 1-6-6v-4.378a15.344 15.344 0 0 1-3.484-.806c.034-.809.055-1.652.055-2.53v-.274c0-.823 0-1.793-.034-2.836a10.22 10.22 0 0 0 3.462 1.259v-5.863c0-3.312 2.688-6 6-6h5.86A10.286 10.286 0 0 0 22.286 8.57Zm15.048 13.715a15.452 15.452 0 0 1-11.62 11.62v4.665c0 .474.384.858.858.858H42a.857.857 0 0 0 .857-.858V23.143a.857.857 0 0 0-.857-.857h-4.666Zm-5.349 0h-5.413a.857.857 0 0 0-.858.857v5.417a10.304 10.304 0 0 0 6.27-6.274ZM8.85.428a1.714 1.714 0 0 1 .408 2.05 1.122 1.122 0 0 0-.044.31c0 .215.054.627.572 1.141.25.25.442.429.652.624.171.158.353.322.583.549.445.425.915.925 1.337 1.553.874 1.313 1.357 2.955 1.357 5.345 0 2.852-1.028 5.29-2.646 6.83 1 1.015 1.584 2.341 1.944 3.668.702 2.578.702 5.767.702 8.232v.127c0 7.056-1.32 11.246-2.815 13.738a9.17 9.17 0 0 1-2.187 2.562 5.643 5.643 0 0 1-1.131.685S7.145 48 6.857 48a2.743 2.743 0 0 1-.723-.158 5.643 5.643 0 0 1-1.132-.685 9.168 9.168 0 0 1-2.187-2.562C1.32 42.106 0 37.913 0 30.857v-.123c0-2.469 0-5.654.703-8.24.36-1.323.943-2.65 1.944-3.668C1.029 17.294 0 14.852 0 12c0-1.118.298-2.452.71-3.682.411-1.235.987-2.51 1.652-3.539.792-1.337 1.907-2.458 2.77-3.212.474-.417.969-.81 1.482-1.176l.103-.069.03-.024.01-.007.008-.003a1.714 1.714 0 0 1 2.084.14Z"/>
</svg>
