<svg xmlns="http://www.w3.org/2000/svg" width="67" height="48" fill="none" viewBox="0 0 67 48">
  <path d="M66.364 18.142c-.202-.134-1.877-1.44-5.495-1.44-.938 0-1.876.101-2.813.269-.704-4.687-4.623-7.063-4.791-7.163l-.971-.57-.603.904c-.805 1.205-1.441 2.578-1.709 3.984-.67 2.677-.268 5.221 1.105 7.397-1.641.937-4.321 1.172-4.89 1.172H2.077C.938 22.695 0 23.632 0 24.803c0 3.85.603 7.7 1.943 11.314 1.507 3.983 3.786 6.929 6.7 8.737C11.926 46.862 17.32 48 23.45 48a44.82 44.82 0 0 0 8.107-.736 33.074 33.074 0 0 0 10.686-3.883 27.8 27.8 0 0 0 7.27-5.992c3.518-3.916 5.595-8.368 7.102-12.218h.636c3.82 0 6.198-1.54 7.505-2.845.87-.803 1.507-1.774 1.976-2.912l.268-.803-.636-.469ZM6.197 21.456h5.897a.55.55 0 0 0 .536-.535v-5.29a.55.55 0 0 0-.537-.535H6.198a.529.529 0 0 0-.535.536v5.289c.033.3.234.535.535.535Zm8.141 0h5.896a.55.55 0 0 0 .536-.535v-5.29a.55.55 0 0 0-.536-.535h-5.896a.529.529 0 0 0-.536.536v5.289c.034.3.235.535.536.535Zm8.275 0h5.862c.335 0 .57-.234.57-.535v-5.29c0-.267-.202-.535-.57-.535h-5.863c-.267 0-.502.235-.502.536v5.289c0 .3.201.535.503.535Zm8.174 0h5.929c.268 0 .502-.234.502-.535v-5.29c0-.267-.2-.535-.502-.535h-5.93c-.268 0-.502.235-.502.536v5.289c0 .3.235.535.503.535Zm-16.449-7.498h5.896c.268 0 .536-.301.536-.602V8.1a.529.529 0 0 0-.536-.535h-5.896c-.301 0-.536.2-.536.535v5.256c.034.3.235.602.536.602Zm8.275 0h5.862c.335 0 .57-.301.57-.602V8.1c0-.3-.202-.535-.57-.535h-5.863c-.267 0-.502.2-.502.535v5.256c0 .3.201.602.503.602Zm8.174 0h5.929c.268 0 .502-.301.502-.602V8.1c0-.3-.234-.535-.502-.535h-5.93c-.268 0-.502.2-.502.535v5.256c0 .3.235.602.503.602Zm0-7.632h5.929c.268 0 .502-.234.502-.535V.569c0-.335-.234-.569-.502-.569h-5.93c-.268 0-.502.2-.502.569v5.222c0 .268.235.535.503.535Zm8.24 15.13h5.896a.529.529 0 0 0 .536-.535v-5.29a.55.55 0 0 0-.536-.535h-5.895c-.268 0-.503.235-.503.536v5.289c0 .3.235.535.503.535Z"/>
</svg>
