<svg xmlns="http://www.w3.org/2000/svg" width="35" height="48" fill="none" viewBox="0 0 35 48">
  <path fill-rule="evenodd" d="M24.515 0a9.6 9.6 0 0 1 6.35 16.8 9.6 9.6 0 0 1-11.15 15.516V38.4a9.6 9.6 0 1 1-15.95-7.2A9.576 9.576 0 0 1 .514 24a9.576 9.576 0 0 1 3.25-7.2A9.6 9.6 0 0 1 10.114 0h14.4Zm-9.6 33.6h-4.8a4.8 4.8 0 1 0 4.8 4.8v-4.8Zm0-14.4h-4.8a4.8 4.8 0 1 0 0 9.6h4.8v-9.6Zm9.6 0a4.8 4.8 0 1 0 0 9.6 4.8 4.8 0 0 0 0-9.6Zm0-14.4h-4.8v9.6h4.8a4.8 4.8 0 0 0 .36-9.588l-.36-.012Zm-9.6 0h-4.8a4.8 4.8 0 1 0 0 9.6h4.8V4.8Z" clip-rule="evenodd"/>
</svg>
