<svg xmlns="http://www.w3.org/2000/svg" width="55" height="48" fill="none" viewBox="0 0 55 48">
  <path d="M16.958 42.778C11.297 39.47 6.461 31.482 3.962 24.475c-1.004-3.039-1.348-6.298-2.642-9.22-1.354-2.122.232-4.442 2.563-5.116 1.038-.199 2.863-1.175.66-.477-1.975 1.444-2.166-1.312-.141-1.487 1.382-.183 1.89-1.31 1.418-2.327-1.483-.964 3.597-2.025 1.04-3.464-2.662-2.865 3.726-3.417 2.15-.163-.377 2.502 4.463-.458 3.34 2.431 1.142 1.388 4.275.316 4.198 2.263 1.663.114 2.233 1.51 3.795 1.616 1.617.729 4.55 1.303 5.101 3.121-1.605 1.268-5.322-2.617-5.5.89.677 12.376 1.319 16.643 7.31 23.126 4.037 4.554 9.582 6.702 14.265 7.466 1.008-.769 2.788-3.629 4.362-2.423.075 1.355-3.123 2.833-.15 2.683 1.745-.525 2.955 1.346 4.392-.342 1.324 1.565 5.504-.999 4.562 2.198-1.274.82-3.132.324-4.408 1.452-2.104-1.048-3.78.938-6.108.687-8.98 1.567-20.68.153-27.21-4.61Zm10.554 3.873c3.914.543 7.956 1.378 11.885.617-1.778-.801-3.616.312-5.387-.573-2.125.456-4.404-.116-6.564-.398-2.456-1.09-5.107-1.84-7.407-3.257-2.873-1.047 1.487 1.343 2.263 1.536 1.796 1.017-1.976-.521-2.508-.944-1.504-.842-1.734-.646-.186.21 2.412 1.49 5.436 2.5 7.904 2.81ZM16.308 41.33c2.181.806-.01-1.53-1.01-1.394-.442-.766-1.691-1.25-.81-1.662-1.585.549-1.66-2.087-2.406-1.71-1.677-.529-.653-2.4-2.65-3.548-.183-1.21-1.985-2.26-2.56-4.087-.254-.934-2.036-3.62-.941-1.12.932 2.404 2.572 4.464 3.937 6.522 1.06 1.959 2.312 4.006 4.242 5.228.65.622 1.279 1.576 2.198 1.771Zm2.81-3.791c-1.194-.634-3.793-.963-1.959.489 1.177.474 4.177.704 1.959-.489Zm2 2.523c2.564.723-2.156-1.617-.632-.266l.632.266Zm.022-1.355c1.862.24-2.216-1.263-.409-.134l.409.134Zm6.472 3.969c1.74-1.037 1.166 2.428 2.95.293 1.76-1.282-1.52 1.584.65.228 1.568-1.046 3.886.496 5.35 1 1.052-.052 2.076.907 3.155.324 2.077-.558-4.063-.828-2.453-1.818-1.901.552-3.306-.658-4.24-1.872-2.133-.491-4.599-1.578-5.663-3.46-.434-.707.627.1-.374-1.056-1.285-1.14-1.927-2.433-2.79-3.818-1.03-.549-1.15-2.162-1.254-.055.008-1.33-1.244-2.225-1.55-1.853-.005-1.28 1.34-.639.399-1.587-.203-1.327-.87-2.71-1.071-4.21-.312-.723-.044-2.27-1.064-.634-.372 1.729-.124-2.125.454-.854.759-1.297-.272-1.144-.314-.964.494-1.094.313-2.646-.13-2.054.264-1.16.417-4.267-.393-3.717.49-1.212.931-5.548-1.2-3.895-.865.012-2.36.313-3.068.664 2.217 1.219-.223.44-1.126.246-.117 1.128-1.011.64-2.128.651 1.784.22-.869 1.82-1.892 1.199-1.33.633 1.147 2.215.026 2.703.138.738-2.036-.266-1.865 1.437-1.29-.542-.178 2.019.468 1.153 2.194.592 1.545 1.943 1.6 3.226-.357.747-1.765-1.758-.313-1.642-1.145-1.855-1.267-.67-2.219.192-.221.062 2.428 1.226.765 1.802 1.463.225 1.505 1.502 1.803 2.31.879.912.699-1.01 1.75.088-.665-.977-3.525-2.755-1.222-2.185-.013-.984-.417-1.777.289-1.758.698-1.262-.732 3.111.843 1.508.436-.19.544-1.264 1.327.101 1.139 1.117.412 1.926-1.194.904.287.971 2.148 1.319 1.798 2.838.37 1.337.89.845 1.341.767.355 1.299.556.344.573-.274 1.624.347 1.243 1.304 1.751 1.972 1.12.504-1.6-3.413.32-1.177 2.02 1.819.769 2.446-1.056 2.287 1.518.124 1.55 1.472 2.954 1.49 1.22.628 2.182 2.982-.075 1.99-1.272-.788-3.539-1.548-1.277-.21.536.338 3.75 1.543 5.765 2.754 1.115.76 2.065 2.203 2.611 2.435-1.212.578-3.652-.46-1.84-.779-1.13-.205-2.363-.784-1.32.63.898.818 3.263.685 3.682.772-.355.781-.966.843.015.904-1.094.582.351.672.452 1.004Zm-2.355-7.165c-.72-1.132-.548.169.118.863 1.064 1.262.25-.715-.118-.863Zm-3.974-5.854s.178-1.194-.37-1.326c-.547-.132-.245.087.193 1.032.104.226.169.304.168.299m-5.982-4.53c-.543-1.215.26-.555.142-1.073-.25-.521-2.69-3.286-1.579-1.199 1.006 2.49-.633-.312-.803-1.16-.19.52.397 2.227.752 2.808.903 1.387.497-.76 1.488.623Zm-4.995-4.789c-1.412-1.184.435.584-.138.562-1.488-1.084-.88-.316-.04.516.911 1.35 1.663-.808.178-1.078Zm.725.204c2.67.732-2.842-2.57-.4-.402l.4.402Zm7.39 3.148c-.766.015.319-1.665-.709-1.333-.36-2.612-1.138 1.206-.08 1.839.326.935.669.554.79-.506Zm-6.305-3.715c3.556 1.637-2.574-2.707-1.005-.548.187.416.634.451 1.005.548Zm.408-.848c2.693 1.11-.24-.723-1.173-.524.236.343.873.193 1.173.524Zm.36-1.006c.875-.174-.115-.453-.638-.867-1.21-1.812.18.146-.2.702.503.493 2.214 1.375.839.165Zm6.186-2.81c-.357 1.882-.721 1.097-.21-.306-.122-1.8-1.22 1.102-.734 1.955.802 1.274 1.603-3.13.944-1.65Zm1.066 22.405c1.389.356 1.382-.215.127-.385-.676-.626-2.806-1.29-.899-.077.126.319.525.311.772.462Zm-4.93-3.265c.765.568 2.881 1.612 1.09.216.604-.7-1.157-1.073-.573-1.54-1.485-.907-1.172-.827-.131-.798-1.785-.796.258-.736.162-1.144-.689-.136-3.42-1.21-1.813.088-1.633-.83-.39.31-.883.19-1.67-.455 1.487 1.267-.265.84.958.757 2.579 1.94.405.801-.286.411 1.556 1.034 2.008 1.346Zm17.35 10.147c.733-.707.03 1.128 1.215-.173.012-.931-.037-1.481-1.36-.35-.366.202-.529 1.06.146.523Zm-11.994-7.68c.814.722 3.742.53.99.089-.408-.601-2.59-.457-.99-.089Zm-13.421-8.99c-1.184-1.685-.736-2.442-1.877-3.817-.216-1.051-1.958-3.438-.901-.91.968 1.479 1.256 3.768 2.778 4.727Zm35.069 16.622c1.151-.233 3.775.584 4.2-.305-1.399-.034-4.839-.984-5.002.227l.802.078ZM2.987 15.534c-.21-1.2-.463-3.307 1.544-2.595-2.68.53 1.855 3.322 1.282 1.118 1.127.055 2.204-.664 1.613.427 2.22-.244 3.76-2.164 5.903-1.895 1.67-.22 3.497-.388 5.297-1.058 1.48-.107 2.905-1.696 2.094-2.638-2.018-.17-4.131.082-6.362.524-2.472.513-4.717 1.486-7.211 1.904-2.431.326.489.898-.208 1.025-1.268.439 1.513.735-.164 1.198-1.036-.197-2.114-.552-1.672-1.64-2.329.301-4.375 1.265-2.535 3.628l.42.001Zm6.224-2.584c2.03 1.384-.349-2.273-.895-.267.254-.062.653.086.895.267Zm.578-.928c1.925.193-.295-1.219-.366-.332l.366.332Zm3.226-1.175c2.84-.54-1.04-.9-1.873.097.527.24 1.111-.67 1.873-.098Zm4.872-.966c1.796-.275.283-1.097-.243.276.19.433.282-.13.243-.276Zm-9.66 7.317c1.015-.07 1.588-1.117-.196-1.057-2.766-.285 2.44.945-.355.593-.376.248.53.532.55.464ZM6.806 9.202c1.811-.615 4.098-1.137 5.118.346-.767-1.08-.326-2.117.497-.59 1.162 1.546 1.58-.396.988-1.22.563.887 2.651 2.819.577.067 1.374-1.65-2.752.216-3.69.197-.451.202-4.66 1.07-3.49 1.2Zm1.061-2.028c1.033-.778 3.574.463 1.943-.773-.159-.14-3.57.937-1.943.773Zm3.767.155c1.209.031-.522-1.62.919-.872-.237-.77-1.678-.915-2.382-1.223-.398.705.811 2.105 1.463 2.095ZM7.193 2.044c-1.372-1.786 2.58.3 1.186-1.57-1.173-.932-2.3 1.048-1.186 1.57ZM24.8 11.502c.63-1.113-2.598-1.5-.424-.394.2.066.155.47.424.394Z"/>
</svg>
