<?xml version="1.0" encoding="iso-8859-1"?>
<!DOCTYPE svg PUBLIC "-//W3C//DTD SVG 1.1//EN" "http://www.w3.org/Graphics/SVG/1.1/DTD/svg11.dtd">
<svg fill="none" version="1.1" id="Capa_1" xmlns="http://www.w3.org/2000/svg" xmlns:xlink="http://www.w3.org/1999/xlink" 
	 width="800px" height="800px" viewBox="0 0 517.267 517.267"
	 xml:space="preserve">
<g>
	<g>
		<path d="M46.56,367.44c25.857,0,46.818-20.961,46.818-46.789c0-25.685-20.951-46.646-46.818-46.646
			C20.875,274.005,0,294.957,0,320.651C0,346.479,20.884,367.44,46.56,367.44z"/>
		<path d="M85.565,376.114c-3.71,6.923-1.052,15.472,5.919,19.087l167.248,86.817l14.898,9.792
			c5.077,3.338,10.968,5.059,16.916,5.059c2.726,0,5.46-0.363,8.147-1.1l195.897-53.722c16.409-4.495,26.067-21.449,21.572-37.849
			c-4.513-16.409-21.458-26.058-37.857-21.563l-177.05,48.549l0.345-1.463l-51.82-30.304l19.966-39.933
			c3.51-7.02,0.612-15.492-6.444-18.905l-94.009-45.508c-9.505-4.6-22.883-1.636-26.421,8.31c-1.138,3.193-2.008,6.502-2.735,9.858
			l-6.837-101.391c-0.794-11.752-10.997-20.655-22.721-19.842c-11.752,0.793-20.636,10.958-19.842,22.711l9.084,134.716
			L85.565,376.114z"/>
		<path d="M377.642,369.668c5.288,0,9.562-4.284,9.562-9.562V214.278c0-5.278-4.274-9.562-9.562-9.562s-9.562,4.284-9.562,9.562
			v145.828C368.079,365.384,372.363,369.668,377.642,369.668z"/>
		<path d="M344.078,309.903c5.288,0,9.562-4.284,9.562-9.562V154.512c0-5.278-4.274-9.562-9.562-9.562s-9.562,4.284-9.562,9.562
			V300.34C334.516,305.619,338.799,309.903,344.078,309.903z"/>
		<path d="M175.969,245.117c5.288,0,9.562-4.284,9.562-9.562V89.726c0-5.278-4.274-9.562-9.562-9.562s-9.562,4.284-9.562,9.562
			v145.828C166.406,240.833,170.69,245.117,175.969,245.117z"/>
		<path d="M209.533,185.351c5.288,0,9.562-4.284,9.562-9.562V29.96c0-5.278-4.274-9.562-9.562-9.562s-9.562,4.284-9.562,9.562
			v145.828C199.971,181.067,204.245,185.351,209.533,185.351z"/>
	</g>
</g>
</svg>