<svg xmlns="http://www.w3.org/2000/svg" width="69" height="48" fill="none" viewBox="0 0 69 48">
  <path d="M68.853 27.429V10.286L51.71 0 34.567 10.286 17.424 0 .281 10.286v17.143L34.567 48l34.286-20.571ZM24.282 20.57h-6.858v6.858h-3.428V20.57H7.139v-3.428h6.857v-6.857h3.428v6.857h6.858v3.428Zm20.57 6.858A3.429 3.429 0 0 1 41.425 24a3.439 3.439 0 0 1 3.429-3.429A3.439 3.439 0 0 1 48.28 24a3.439 3.439 0 0 1-3.428 3.429ZM55.14 20.57a3.429 3.429 0 0 1-3.429-3.428 3.439 3.439 0 0 1 3.429-3.429 3.439 3.439 0 0 1 3.428 3.429 3.439 3.439 0 0 1-3.428 3.428Z"/>
</svg>
