<svg xmlns="http://www.w3.org/2000/svg" width="48" height="48" fill="none" viewBox="0 0 48 48">
  <path d="M47.086 21.858 26.128.908a3.09 3.09 0 0 0-4.374 0l-4.344 4.35 5.522 5.515a3.666 3.666 0 0 1 3.774.883 3.684 3.684 0 0 1 .883 3.796l5.312 5.32a3.658 3.658 0 0 1 3.796.874 3.662 3.662 0 0 1 0 5.203 3.67 3.67 0 0 1-5.195 0 3.692 3.692 0 0 1-.813-3.991l-4.976-4.952v13.052c.35.173.687.407.976.696a3.692 3.692 0 0 1 0 5.203 3.697 3.697 0 0 1-5.217 0 3.68 3.68 0 0 1 1.21-6.007V17.673a3.878 3.878 0 0 1-1.203-.803 3.663 3.663 0 0 1-.789-4.015l-5.42-5.452L.897 21.768a3.117 3.117 0 0 0 0 4.374l20.957 20.95a3.091 3.091 0 0 0 4.375 0l20.855-20.855a3.089 3.089 0 0 0 0-4.375l.002-.004Z"/>
</svg>
