<svg xmlns="http://www.w3.org/2000/svg" width="48" height="48" fill="none" viewBox="0 0 48 48">
  <path d="M24 0C10.745 0 0 10.745 0 24s10.745 24 24 24 24-10.745 24-24S37.255 0 24 0Zm0 2.44c11.907 0 21.56 9.653 21.56 21.56 0 11.907-9.653 21.56-21.56 21.56-11.907 0-21.56-9.653-21.56-21.56C2.44 12.093 12.094 2.44 24 2.44Zm.271 4.475A17.025 17.025 0 0 0 17.76 8.2a6.645 6.645 0 1 1-9.288 9.288A17.025 17.025 0 0 0 7.186 24c0 9.436 7.65 17.085 17.085 17.085 9.436 0 17.085-7.65 17.085-17.085 0-9.436-7.65-17.085-17.085-17.085Z"/>
</svg>
