<svg xmlns="http://www.w3.org/2000/svg" width="38" height="48" fill="none" viewBox="0 0 38 48">
  <path d="M22.37 0c2.594 6.11-9.3 9.852-10.406 14.945-1.012 4.673 7.047 10.155 7.054 10.155-1.23-1.934-2.125-3.564-3.354-6.579C13.584 13.429 28.346 8.835 22.371 0Zm7.863 8.482s-10.399.656-10.926 7.443c-.24 3.023 2.745 4.608 2.832 6.81.074 1.794-1.792 3.286-1.792 3.286s3.346-.604 4.393-3.346c1.157-3.043-2.253-5.12-1.907-7.559.333-2.328 7.4-6.634 7.4-6.634Zm2.544 15.635c-1.092-.05-2.32.355-3.412 1.154 2.154-.474 3.99.874 3.99 2.425 0 3.476-4.972 6.75-4.972 6.75s7.689-.859 7.689-6.577c0-2.36-1.48-3.665-3.295-3.752Zm-20.407.06c-2.683.092-8.037.533-8.037 2.595 0 2.872 12.473 3.095 21.392 1.328 0 0 2.427-1.688 3.063-2.308-5.846 1.211-19.193 1.4-19.193.345 0-.965 4.277-1.96 4.277-1.96s-.607-.03-1.502 0Zm-.81 5.308c-1.468 0-3.643 1.139-3.643 2.249 0 2.236 11.044 3.953 19.195.692l-2.834-1.73C18.75 32.5 8.538 31.9 11.559 29.485Zm1.387 5.018c-2.002 0-3.295 1.263-3.295 2.194 0 2.862 11.96 3.144 16.707.23l-3.006-1.962c-3.54 1.523-12.45 1.746-10.406-.462ZM6.24 37.101C2.975 37.036.864 38.514.864 39.752c0 6.6 33.474 6.284 33.474-.461 0-1.117-1.322-1.65-1.792-1.904C35.278 43.835 5.2 43.331 5.2 39.522c0-.864 2.225-1.73 4.277-1.326l-1.733-.982a10.832 10.832 0 0 0-1.505-.113Zm31.624 4.442c-5.087 4.912-17.963 6.671-30.93 3.636 12.965 5.41 30.866 2.4 30.93-3.636Z"/>
</svg>
