<svg xmlns="http://www.w3.org/2000/svg" width="95" height="48" fill="none" viewBox="0 0 95 48">
  <path d="M24.142 0C10.83 0 0 10.764 0 23.998 0 37.232 10.83 48 24.142 48h46.712C84.17 48 95 37.228 95 23.998 95 10.768 84.17 0 70.858 0H24.142Zm-.483 7.623c1.951.048 4.038.987 5.039 2.458 1.457 1.812 1.892 4.21 3.543 5.891 2.216 2.415 4.746 4.538 6.792 7.11 1.94 2.348 3.321 5.106 4.529 7.884.49.92.494 2.052 1.227 2.841.356.474 2.113 1.768 1.733 2.226.218.473 1.86 1.128 1.29 1.586-.767.158-1.634.19-2.224-.422-.214.497-.72.236-1.112.17l-.1.291c-1.305.087-2.28-1.235-2.897-2.23-1.23-.662-2.632-1.064-3.887-1.759-.075 1.144.178 2.557-.914 3.295-.055 2.197 3.337.26 3.65 1.894-.242.027-.511-.036-.705.15-.883.856-1.9-.651-2.921-.028-1.37.687-1.505 1.247-3.207 1.389-.09-.142-.055-.237.024-.32.475-.552.515-1.203 1.33-1.44-.839-.13-1.544.332-2.252.695-.919.374-.91-.845-2.328.067-.158-.13-.079-.245.008-.344.36-.434.831-.5 1.366-.473-2.625-1.46-3.86 1.776-5.07.17-.365.094-.503.418-.733.65-.198-.216-.047-.477-.04-.733-.237-.11-.534-.162-.463-.54-.463-.159-.791.117-1.132.378-.316-.24.21-.592.305-.84.277-.478.91-.1 1.231-.443.91-.516 2.185.316 3.23.178.804.103 1.797-.718 1.393-1.539-.859-1.093-.708-2.521-.724-3.827-.107-.758-1.944-1.728-2.478-2.55-.657-.737-1.168-1.593-1.678-2.438-1.849-3.55-1.267-8.12-3.594-11.422-1.053.58-2.423.307-3.33-.47-.49.446-.514 1.026-.553 1.645-1.172-1.171-1.026-3.377-.084-4.68.38-.512.84-.934 1.354-1.31.115-.078.154-.161.15-.291.464-2.08 2.276-2.92 4.232-2.869Zm49.115 1.815c2.205 0 4.275.852 5.83 2.4a8.132 8.132 0 0 1 2.415 5.8 8.107 8.107 0 0 1-2.414 5.8v.004l-3.57 3.55a8.318 8.318 0 0 1-3.405 2.037l-.063.02-.02.063a8.087 8.087 0 0 1-1.876 2.884l-3.57 3.551a8.232 8.232 0 0 1-5.84 2.4 8.223 8.223 0 0 1-7.62-5.06 8.172 8.172 0 0 1 1.786-8.94l3.57-3.551a8.16 8.16 0 0 1 3.397-2.029l.067-.023.024-.063a8.283 8.283 0 0 1 1.88-2.893l3.57-3.55a8.196 8.196 0 0 1 5.839-2.4Zm-.004 3.54a4.683 4.683 0 0 0-3.325 1.365l-3.566 3.551a4.656 4.656 0 0 0-1.358 3.646l.02.229a4.609 4.609 0 0 0 1.338 2.726c.514.513 1.08.837 1.769 1.062.035.206.053.414.055.623a3.462 3.462 0 0 1-1.029 2.486l-.222.22a7.761 7.761 0 0 1-3.087-1.893 8.12 8.12 0 0 1-2.28-4.325l-.04-.229-.182.146c-.12.099-.236.204-.344.316l-3.574 3.547a4.659 4.659 0 0 0-1.017 5.095 4.68 4.68 0 0 0 1.733 2.094 4.69 4.69 0 0 0 2.609.778 4.696 4.696 0 0 0 3.317-1.365l3.57-3.552a4.656 4.656 0 0 0 1.377-3.3 4.643 4.643 0 0 0-1.377-3.3 4.752 4.752 0 0 0-1.726-1.086 3.816 3.816 0 0 1 1.092-3.366 8.154 8.154 0 0 1 3.58 2.399 8.117 8.117 0 0 1 1.852 3.883l.04.229.181-.15c.123-.098.239-.204.349-.316l3.57-3.547a4.66 4.66 0 0 0-1.525-7.616 4.683 4.683 0 0 0-1.8-.35ZM33.29 33.326c-.317 1.219-.416 3.287-2.003 3.346-.131.698.486.963 1.049.738.558-.253.823.2 1.013.655.863.126 2.138-.288 2.185-1.302-1.286-.738-1.686-2.143-2.244-3.437Z"/>
</svg>
