<svg xmlns="http://www.w3.org/2000/svg" width="40" height="48" fill="none" viewBox="0 0 40 48">
  <path fill-rule="evenodd" d="M21.019 0c-.314 0-.637.016-.97.042-8.55.666-6.283 9.613-6.412 12.595-.156 2.186-.607 3.908-2.126 6.042-1.79 2.102-4.303 5.5-5.495 9.041-.562 1.664-.83 3.368-.58 4.978a.848.848 0 0 0-.225.27c-.526.536-.908 1.202-1.34 1.677-.402.399-.98.534-1.612.8-.633.273-1.33.538-1.747 1.362a2.636 2.636 0 0 0-.267 1.202c0 .398.054.802.11 1.072.118.798.235 1.458.08 1.94-.502 1.36-.565 2.292-.213 2.97.352.668 1.083.938 1.9 1.202 1.64.4 3.864.27 5.614 1.198 1.873.934 3.775 1.342 5.292.94a3.595 3.595 0 0 0 1.44-.67 3.544 3.544 0 0 0 1.004-1.22c1.187-.006 2.488-.538 4.572-.668 1.414-.116 3.184.534 5.215.398.05.27.128.398.23.668l.007.006c.79 1.556 2.251 2.264 3.811 2.142 1.56-.12 3.22-1.072 4.566-2.612 1.277-1.53 3.405-2.168 4.81-3.006.705-.398 1.273-.938 1.314-1.706.046-.8-.403-1.624-1.445-2.754v-.194l-.006-.006c-.344-.4-.505-1.07-.684-1.852-.172-.801-.368-1.572-.995-2.091h-.006c-.12-.108-.249-.134-.38-.27a.728.728 0 0 0-.385-.128c.872-2.556.534-5.1-.35-7.388-1.078-2.82-2.963-5.276-4.4-6.965-1.61-2.01-3.188-3.914-3.158-6.738.055-4.304.48-12.265-7.17-12.277Zm1.07 6.81h.026c.431 0 .802.123 1.182.395.386.27.667.664.888 1.066.212.518.32.918.336 1.448 0-.04.012-.08.012-.118v.208a.172.172 0 0 1-.008-.042l-.008-.048a3.58 3.58 0 0 1-.304 1.412c-.094.25-.241.48-.43.67a1.438 1.438 0 0 0-.179-.084c-.212-.09-.402-.128-.576-.266a2.677 2.677 0 0 0-.443-.132c.099-.118.293-.266.368-.396.107-.256.166-.528.178-.804v-.038a2.398 2.398 0 0 0-.123-.8c-.091-.27-.205-.402-.37-.668-.17-.132-.339-.264-.54-.264h-.033c-.188 0-.356.06-.53.264a1.6 1.6 0 0 0-.415.668c-.108.254-.17.525-.182.8v.038c.004.178.016.358.04.534-.39-.134-.886-.27-1.228-.404a3.237 3.237 0 0 1-.036-.398v-.04a3.508 3.508 0 0 1 .303-1.538c.166-.438.471-.812.87-1.065a2.007 2.007 0 0 1 1.202-.399Zm-5.992.117h.073c.287 0 .546.096.807.27.295.258.534.576.696.93.182.398.285.802.31 1.334v.008c.013.268.011.402-.005.532v.16c-.06.014-.113.036-.168.048-.307.11-.554.27-.795.4a2.15 2.15 0 0 0 .006-.534v-.03c-.024-.266-.079-.398-.166-.666a1.225 1.225 0 0 0-.335-.534.504.504 0 0 0-.37-.128h-.043c-.144.012-.263.082-.376.264-.13.155-.213.342-.243.54-.055.217-.07.44-.047.662v.028c.025.27.075.402.164.668.091.268.197.4.334.536.022.018.043.036.069.048-.142.114-.237.14-.356.272a.622.622 0 0 1-.265.136c-.21-.25-.397-.52-.557-.804a3.515 3.515 0 0 1-.313-1.334 3.482 3.482 0 0 1 .162-1.336c.111-.393.306-.757.572-1.07.26-.265.526-.4.846-.4Zm2.773 3.412c.67 0 1.481.13 2.458.798.593.4 1.058.538 2.13.936h.007c.516.272.819.532.967.798v-.262a1.133 1.133 0 0 1 .032.94c-.249.622-1.044 1.288-2.152 1.686v.004c-.543.27-1.014.666-1.568.93-.559.27-1.19.584-2.048.534a2.328 2.328 0 0 1-.906-.134 7.231 7.231 0 0 1-.651-.396c-.395-.27-.735-.664-1.238-.93v-.01h-.01c-.81-.492-1.247-1.024-1.388-1.422-.14-.536-.01-.938.39-1.2.453-.27.769-.542.977-.672.21-.148.29-.204.356-.262h.004v-.006c.342-.404.882-.938 1.698-1.202a3.76 3.76 0 0 1 .942-.13Zm5.663 4.286c.726 2.834 2.421 6.95 3.512 8.945.578 1.068 1.73 3.318 2.23 6.048a3.87 3.87 0 0 1 1.037.128c1.307-3.342-1.105-6.933-2.203-7.931-.447-.402-.47-.67-.249-.67 1.192 1.067 2.761 3.143 3.33 5.513.26 1.07.322 2.208.042 3.34.136.056.273.122.415.134 2.088 1.068 2.859 1.876 2.489 3.074v-.086c-.124-.006-.243 0-.367 0h-.03c.305-.934-.368-1.65-2.155-2.448-1.85-.8-3.33-.672-3.582.93-.014.086-.025.132-.035.27-.137.046-.281.106-.422.128-.87.536-1.34 1.338-1.605 2.374-.263 1.066-.344 2.311-.415 3.737v.006c-.042.668-.345 1.676-.645 2.702-3.034 2.144-7.242 3.076-10.821.668a5.295 5.295 0 0 0-.813-1.066 2.904 2.904 0 0 0-.556-.668c.368 0 .683-.058.94-.134.291-.133.519-.372.635-.668.219-.534 0-1.394-.697-2.325-.698-.934-1.884-1.99-3.618-3.042-1.274-.798-1.994-1.74-2.326-2.792-.334-1.068-.29-2.17-.03-3.29.495-2.14 1.766-4.22 2.577-5.525.216-.13.075.27-.826 1.947-.8 1.502-2.308 4.994-.246 7.708.078-1.98.521-3.93 1.309-5.752 1.14-2.556 3.526-7.007 3.714-10.535.097.072.439.27.584.404.441.266.77.666 1.194.93.427.402.965.67 1.772.67.08.006.152.012.225.012.831 0 1.475-.268 2.015-.536.586-.268 1.054-.668 1.497-.8h.01c.944-.27 1.691-.804 2.114-1.4m4.422 17.915c.075 1.202.694 2.49 1.784 2.754 1.19.268 2.901-.666 3.624-1.53l.426-.018c.638-.016 1.168.02 1.714.534l.006.006c.42.398.617 1.061.791 1.752.172.802.312 1.56.827 2.131.984 1.054 1.305 1.812 1.287 2.28l.006-.012v.036l-.006-.024c-.03.524-.374.792-1.007 1.19-1.275.802-3.533 1.424-4.97 3.14-1.251 1.474-2.774 2.278-4.12 2.382-1.343.106-2.502-.4-3.184-1.796l-.01-.006c-.425-.802-.243-2.05.113-3.38.356-1.336.866-2.69.937-3.796.075-1.428.154-2.67.394-3.627.243-.93.623-1.594 1.297-1.968l.091-.044v-.004Zm-21.879.098h.02c.108 0 .213.01.318.028.76.11 1.428.666 2.07 1.504l1.84 3.327.007.006c.491 1.066 1.525 2.128 2.405 3.276.878 1.196 1.558 2.262 1.475 3.14v.012c-.116 1.488-.97 2.296-2.276 2.588-1.305.27-3.075.004-4.845-.928-1.959-1.072-4.285-.938-5.78-1.204-.747-.132-1.236-.402-1.463-.802-.224-.398-.228-1.202.25-2.46v-.006l.003-.006c.237-.668.06-1.506-.054-2.238-.112-.802-.168-1.418.087-1.88.323-.667.8-.797 1.393-1.066.597-.27 1.297-.403 1.854-.937h.004v-.006c.517-.536.9-1.202 1.35-1.676.385-.402.77-.672 1.342-.672M21.56 14.49c-.88.402-1.912 1.07-3.01 1.07-1.097 0-1.963-.534-2.588-.932-.313-.268-.566-.536-.756-.67-.332-.268-.292-.668-.15-.668.22.032.26.27.402.402.195.132.435.398.73.666.59.4 1.376.934 2.36.934.98 0 2.13-.534 2.828-.932.394-.27.9-.668 1.31-.934.316-.274.302-.536.565-.536.261.032.069.268-.297.666-.449.335-.915.648-1.396.936v-.002h.002Zm-2.189-3.168v-.044c-.012-.038.026-.084.059-.1.15-.086.364-.054.526.008.127 0 .323.134.303.27-.012.098-.172.132-.273.132-.111 0-.186-.086-.285-.136-.105-.036-.296-.016-.33-.13m-1.115 0c-.04.116-.228.098-.335.132-.096.05-.175.136-.282.136-.103 0-.265-.038-.277-.136-.018-.132.178-.266.304-.266.163-.062.372-.094.524-.01.038.018.072.06.06.1v.042h.006v.002Z" clip-rule="evenodd"/>
</svg>
