<svg xmlns="http://www.w3.org/2000/svg" width="49" height="48" fill="none" viewBox="0 0 49 48">
  <path d="M24.084 48a23.843 23.843 0 0 1-16.97-7.03A23.844 23.844 0 0 1 .084 24a23.84 23.84 0 0 1 7.03-16.97A23.842 23.842 0 0 1 24.083 0c6.41 0 12.438 2.496 16.97 7.03A23.843 23.843 0 0 1 48.085 24c0 6.41-2.497 12.438-7.03 16.97A23.843 23.843 0 0 1 24.085 48Zm0-47.295A23.143 23.143 0 0 0 7.612 7.527 23.143 23.143 0 0 0 .788 24a23.143 23.143 0 0 0 6.823 16.472c4.4 4.4 10.25 6.823 16.473 6.823a23.143 23.143 0 0 0 16.472-6.823c4.4-4.4 6.823-10.25 6.823-16.472a23.144 23.144 0 0 0-6.823-16.473A23.144 23.144 0 0 0 24.084.705Z"/>
  <path d="M24.084 42.716C13.764 42.716 5.368 34.32 5.368 24S13.764 5.284 24.084 5.284 42.8 13.68 42.8 24s-8.396 18.716-18.716 18.716Zm0-37.161C13.914 5.555 5.639 13.829 5.639 24c0 10.171 8.274 18.445 18.445 18.445 10.17 0 18.445-8.274 18.445-18.445 0-10.17-8.275-18.445-18.445-18.445Z"/>
  <path d="M24.084 37.297c-7.332 0-13.297-5.965-13.297-13.297 0-7.332 5.965-13.297 13.297-13.297 7.332 0 13.297 5.965 13.297 13.297 0 7.332-5.965 13.297-13.297 13.297Zm0-26.323c-7.183 0-13.026 5.843-13.026 13.026s5.843 13.026 13.026 13.026S37.11 31.183 37.11 24s-5.843-13.026-13.026-13.026Z"/>
  <path d="M24.084 31.877c-4.344 0-7.878-3.533-7.878-7.877 0-4.344 3.534-7.877 7.878-7.877 4.343 0 7.877 3.533 7.877 7.877 0 4.344-3.534 7.877-7.877 7.877Zm0-15.483c-4.194 0-7.607 3.412-7.607 7.606s3.413 7.607 7.607 7.607c4.194 0 7.606-3.413 7.606-7.607 0-4.194-3.412-7.606-7.606-7.606Z"/>
  <path d="M24.084 26.845A2.848 2.848 0 0 1 21.239 24a2.848 2.848 0 0 1 2.845-2.845A2.848 2.848 0 0 1 26.929 24a2.848 2.848 0 0 1-2.845 2.845Zm0-5.42A2.577 2.577 0 0 0 21.51 24a2.577 2.577 0 0 0 2.574 2.574A2.577 2.577 0 0 0 26.658 24a2.577 2.577 0 0 0-2.574-2.574Z"/>
  <path d="M40.753 36.71 24.54 24.077h4.79a.16.16 0 0 0 .16-.16 5.44 5.44 0 0 0-.265-1.673.161.161 0 0 0-.202-.102L24.53 23.6l9.499-11.91a.16.16 0 0 0-.026-.225 15.867 15.867 0 0 0-4.334-2.458.161.161 0 0 0-.173.04.16.16 0 0 0-.033.054l-5.352 14.26-4.559-19.973a.16.16 0 0 0-.191-.12 21.207 21.207 0 0 0-8.862 4.39.16.16 0 0 0-.02.225L23.476 23.45 7.573 15.79a.161.161 0 0 0-.214.075 18.578 18.578 0 0 0-1.54 11.363.16.16 0 0 0 .187.129l16.935-3.074-8.406 4.048a.161.161 0 0 0-.075.214c.243.503.525.987.843 1.447a.163.163 0 0 0 .223.04l8.3-5.75-2.832 12.406a.161.161 0 0 0 .12.192 13.349 13.349 0 0 0 5.187.145.16.16 0 0 0 .131-.184L24.336 24.5l12.718 15.95a.16.16 0 0 0 .225.025 21.17 21.17 0 0 0 3.501-3.54.16.16 0 0 0-.027-.225Z"/>
  <path d="M24.22 47.748h-.272v-23.42L7.387 40.887l-.192-.191.096-.096 16.466-16.465H.336v-.271h23.42L7.197 7.302l.191-.192 16.561 16.562V.252h.271v23.42l16.562-16.56.192.191L24.41 23.865h23.421v.27h-23.42l16.561 16.562-.191.192-.096-.096-16.466-16.466v23.421Z"/>
</svg>
