<svg xmlns="http://www.w3.org/2000/svg" width="46" height="48" fill="none" viewBox="0 0 46 48">
  <path d="m19.256 9.752-8.02-4.048-8.802 4.392 8.236 4.136 8.586-4.48Zm3.676 1.856 8.41 4.244-8.726 4.38-8.25-4.14 8.566-4.484Zm11.23-5.844 8.64 4.332-7.726 3.88-8.426-4.25 7.512-3.962ZM30.446 3.9 22.668 0l-7.694 3.84 8.014 4.04 7.458-3.98Zm-6.08 33.488V48l9.422-4.7-.01-10.62-9.412 4.708Zm9.408-8.412-.01-10.506-9.398 4.672V33.65l9.408-4.674Zm11.31-1.968v10.654l-8.036 4.01-.004-10.606 8.04-4.058Zm0-3.726v-10.44l-8.05 4.002.006 10.528 8.044-4.09Zm-24.044-.14-6.348-3.19v13.79s-7.76-16.514-8.48-17.996c-.092-.192-.474-.402-.57-.454-1.82-.938-3.643-1.87-5.47-2.792v24.36l5.64 3.016V27.14s7.68 14.756 7.756 14.916c.08.16.85 1.716 1.674 2.264 1.096.726 5.798 3.552 5.798 3.552v-24.73Z"/>
</svg>
