<svg xmlns="http://www.w3.org/2000/svg" width="51" height="48" fill="none" viewBox="0 0 51 48">
  <path d="M14.806 6.407c4.305-8.188 15.835-8.618 20.705-.772 3.774 6.08 1.374 13.626-4.166 16.875l-3.598-6.293c2.204-1.292 3.16-4.294 1.658-6.713-1.938-3.12-6.525-2.95-8.237.307-1.267 2.41-.263 5.185 1.823 6.41l-3.6 6.296c-5.245-3.079-7.77-10.052-4.584-16.11Zm1.925 29.508c-.004 2.441-1.886 4.716-4.591 4.817-3.65.136-6.085-3.787-4.373-7.044 1.324-2.518 4.366-3.19 6.574-1.923l3.607-6.309c-5.55-3.198-13.21-1.51-16.542 4.828-4.304 8.187 1.817 18.047 10.991 17.705 6.787-.252 11.512-5.95 11.541-12.074h-7.207Zm28.264-10.43-3.598 6.291c2.212 1.29 3.172 4.297 1.668 6.72-1.938 3.12-6.525 2.95-8.237-.307-1.27-2.415-.26-5.194 1.834-6.416l-3.6-6.296c-5.253 3.075-7.782 10.054-4.595 16.116 4.304 8.188 15.834 8.617 20.705.772 3.776-6.084 1.37-13.636-4.177-16.88Z"/>
</svg>
