<svg xmlns="http://www.w3.org/2000/svg" width="50" height="48" fill="none" viewBox="0 0 50 48">
  <path d="M20.33 16.657c-.759-.308-1.58-.43-2.42-.41-.534 0-1.006 0-1.395.02-.41-.02-.698 0-.842.02v6.893c.288.021.554.041.8.041h1.088c.8 0 1.6-.123 2.359-.369a3.528 3.528 0 0 0 1.682-1.087c.43-.513.636-1.21.636-2.113a3.377 3.377 0 0 0-.472-1.826 2.975 2.975 0 0 0-1.436-1.169ZM40.639 0H8.842A8.711 8.711 0 0 0 .124 8.718v30.564A8.711 8.711 0 0 0 8.842 48H40.64a8.711 8.711 0 0 0 8.718-8.718V8.718A8.711 8.711 0 0 0 40.639 0ZM25.477 23.898a7.013 7.013 0 0 1-3.3 2.503c-1.396.513-2.934.698-4.616.698-.493 0-.82 0-1.026-.02-.205-.021-.492-.021-.882-.021v6.582a.257.257 0 0 1-.226.29h-3.98c-.163 0-.246-.084-.246-.27V12.555c0-.143.062-.225.206-.225.348 0 .677 0 1.148-.02.493-.021 1.005-.021 1.56-.042.553-.02 1.148-.02 1.784-.04.636-.021 1.251-.021 1.867-.021 1.682 0 3.077.205 4.226.636a7.326 7.326 0 0 1 2.748 1.682 6.533 6.533 0 0 1 1.498 2.338 7.9 7.9 0 0 1 .47 2.667c.002 1.764-.409 3.22-1.231 4.37Zm14.546 7.98a5.185 5.185 0 0 1-2.297 1.828c-1.005.429-2.236.652-3.715.652-.942 0-1.867-.08-2.788-.264a8.36 8.36 0 0 1-2.093-.657c-.143-.08-.248-.223-.227-.387v-3.57c0-.06.022-.143.084-.184.06-.041.123-.02.184.02.8.472 1.642.802 2.544 1.005a9.528 9.528 0 0 0 2.42.308c.78 0 1.334-.105 1.703-.29a.953.953 0 0 0 .554-.86c0-.29-.164-.555-.492-.821-.328-.265-1.003-.573-2.008-.967a12.661 12.661 0 0 1-2.913-1.474 5.384 5.384 0 0 1-1.561-1.744 4.426 4.426 0 0 1-.47-2.095c0-.882.246-1.723.7-2.482a5.051 5.051 0 0 1 2.151-1.887c.962-.49 2.173-.716 3.63-.716.84 0 1.702.062 2.543.185.615.082 1.21.246 1.764.471.08.021.164.103.205.185.02.082.041.164.041.246v3.344a.252.252 0 0 1-.102.205c-.185.041-.288.041-.37 0a7.26 7.26 0 0 0-1.969-.697 10.814 10.814 0 0 0-2.297-.267c-.41-.02-.842.041-1.233.144a1.059 1.059 0 0 0-.636.41c-.103.164-.164.37-.164.554 0 .184.082.369.207.533.184.226.428.41.697.554.47.246.964.472 1.455.677 1.11.37 2.176.882 3.16 1.497a4.733 4.733 0 0 1 1.62 1.703 4.41 4.41 0 0 1 .471 2.11 4.762 4.762 0 0 1-.798 2.731Z"/>
</svg>
