<svg xmlns="http://www.w3.org/2000/svg" width="49" height="48" fill="none" viewBox="0 0 49 48">
  <path d="M24.691.001c-12.187 0-11.427 5.312-11.427 5.312l.014 5.503h11.627v1.652H8.664s-7.8-.89-7.8 11.47c0 12.36 6.806 11.92 6.806 11.92h4.06v-5.734s-.218-6.84 6.7-6.84h11.53s6.48.104 6.48-6.296V6.405S37.425 0 24.69 0Zm-6.411 3.7c1.156 0 2.092.94 2.092 2.104a2.096 2.096 0 0 1-2.092 2.102 2.095 2.095 0 0 1-2.092-2.102c0-1.164.934-2.104 2.092-2.104Z"/>
  <path d="M25.037 47.999c12.184 0 11.424-5.312 11.424-5.312l-.014-5.504H24.819v-1.651h16.246s7.8.89 7.8-11.47c0-12.36-6.808-11.92-6.808-11.92h-4.06v5.734s.218 6.84-6.7 6.84h-11.53s-6.48-.104-6.48 6.296v10.583S12.305 48 25.038 48Zm6.412-3.7a2.095 2.095 0 0 1-2.092-2.104c0-1.162.934-2.102 2.092-2.102 1.156 0 2.092.94 2.092 2.102a2.096 2.096 0 0 1-2.092 2.104Z"/>
</svg>
