<svg xmlns="http://www.w3.org/2000/svg" width="90" height="48" fill="none" viewBox="0 0 90 48">
  <path d="M24.413 25.08c-6.31-6.303-15.493-7.354-20.509-2.345C-1.112 27.751-.06 36.927 6.25 43.23c6.31 6.31 18.366 4.48 20.509 2.344 1.732-1.732 3.972-14.192-2.345-20.494ZM73.076 5.46C64.43-3.179 48.61-1.37 37.736 9.496c-10.874 10.867-7.73 31.64-4.035 35.327 2.984 2.985 24.467 6.832 35.34-4.035a34.825 34.825 0 0 0 2.17-2.386c.16-1.085.76-2.449 1.81-4.105a6.897 6.897 0 0 1-1.99.654c-.536.981-1.37 2.039-2.511 3.173-1.315 1.245-2.254 2.059-2.818 2.434-.563.376-1.106.564-1.62.564-1.295 0-1.907-1.14-1.83-3.43-.821 1.17-1.58 2.039-2.269 2.595-.695.557-1.405.835-2.15.835-.743 0-1.335-.334-1.836-1.016-.396-.528-.633-1.162-.716-1.885-.995.974-1.9 1.698-2.7 2.164a5.3 5.3 0 0 1-2.74.73c-1.114 0-2.018-.355-2.7-1.071-.508-.529-.82-1.176-.953-1.948v.014c-1.113 1.022-2.094 1.78-2.936 2.268-.842.487-1.642.73-2.407.73-.876 0-1.586-.34-2.122-1.022-.535-.682-.807-1.594-.807-2.742 0-1.718.376-3.784 1.12-6.191.745-2.407 1.65-4.633 2.72-6.665l3.124-1.155a.714.714 0 0 1 .223-.048c.236 0 .431.174.584.521.153.348.23.821.23 1.406 0 1.67-.383 3.29-1.155 4.856-.772 1.565-1.976 3.235-3.618 5.015-.062.856-.097 1.44-.097 1.76 0 .717.132 1.28.397 1.698.264.418.612.626 1.043.626.431 0 .911-.16 1.412-.48.494-.313 1.239-.96 2.233-1.94.105-1.545.696-2.964 1.788-4.238 1.204-1.405 2.54-2.108 4.008-2.108.765 0 1.37.195 1.83.592.458.396.688.911.688 1.551 0 1.698-1.802 3.075-5.413 4.133.327 1.6 1.183 2.4 2.567 2.4.543 0 1.058-.146 1.552-.439.48-.285 1.19-.897 2.129-1.843a6.856 6.856 0 0 1 .96-2.7 8.35 8.35 0 0 1 2.602-2.706c1.057-.688 1.99-1.036 2.803-1.036 1.023 0 1.746.473 2.15 1.412l2.511-1.391h.689l-1.085 3.603c-.557 1.81-.835 3.054-.835 3.722 0 .668.25 1.058.751 1.058.32 0 .668-.167 1.058-.508.368-.327.89-.821 1.551-1.482a16.089 16.089 0 0 0 1.53-1.906c-.709-.313-1.057-.772-1.057-1.392 0-.619.216-1.307.647-2.024.431-.716 1.023-1.071 1.774-1.071.64 0 .96.327.96.98 0 .515-.18 1.253-.556 2.213 1.363-.146 2.553-1.19 3.569-3.124l.841-.035c3.93-9.043 3.075-18.818-3.075-24.968l.007.021ZM53.201 25.782a1.177 1.177 0 0 1-.55.445 1.98 1.98 0 0 1-.807.16c-.5 0-.877-.104-1.14-.313-.265-.208-.432-.515-.502-.925l.647-.104c.035.257.14.459.3.591.166.14.396.209.695.209.3 0 .522-.063.668-.181a.537.537 0 0 0 .215-.431.39.39 0 0 0-.194-.348c-.09-.056-.313-.132-.668-.223-.48-.118-.807-.223-.995-.313a.908.908 0 0 1-.417-.369.994.994 0 0 1-.028-.988c.076-.146.188-.264.32-.361.104-.077.236-.14.41-.188a2.08 2.08 0 0 1 .564-.077c.299 0 .563.042.793.133.23.083.396.201.508.354.111.146.18.348.222.599l-.64.083a.704.704 0 0 0-.25-.466c-.14-.111-.334-.167-.591-.167-.3 0-.515.049-.64.146-.126.098-.195.216-.195.348 0 .083.027.16.076.23a.64.64 0 0 0 .25.173c.063.021.258.077.578.167.46.126.78.223.967.3a.997.997 0 0 1 .431.34c.105.146.154.334.154.557 0 .223-.063.424-.188.612l.007.007Zm3.575.23c-.285.25-.64.375-1.064.375-.529 0-.946-.174-1.266-.514-.32-.341-.48-.835-.48-1.475 0-.418.07-.78.209-1.093.139-.313.347-.542.626-.702.278-.153.584-.237.918-.237.417 0 .758.105 1.023.313.264.21.438.508.508.898l-.634.097c-.062-.257-.166-.452-.32-.584a.824.824 0 0 0-.556-.195c-.327 0-.592.118-.8.355-.209.236-.306.605-.306 1.113s.097.89.299 1.127a.953.953 0 0 0 .772.348.9.9 0 0 0 .64-.237c.174-.153.278-.396.327-.723l.64.083c-.07.439-.25.786-.536 1.037v.014Zm1.754.285h-.654v-3.84h.654v3.84Zm0-4.557h-.654v-.751h.654v.751Zm3.374 4.557-1.274-1.962-.459.438v1.524h-.654v-5.301h.654v3.026l1.545-1.565h.842l-1.468 1.426 1.62 2.414h-.806Zm1.975 0h-.654v-3.84h.654v3.84Zm0-4.557h-.654v-.751h.654v.751Zm2.018 4.606c-.237 0-.418-.035-.55-.112a.607.607 0 0 1-.271-.292c-.056-.125-.077-.375-.077-.765v-2.212h-.48v-.508H65v-.953l.647-.39v1.343h.654v.508h-.654v2.247c0 .188.014.306.035.355a.249.249 0 0 0 .112.125c.048.035.125.048.222.048.07 0 .167-.006.285-.027l.098.577a2.18 2.18 0 0 1-.494.056h-.007Zm-3.277 5.412c.202.258.306.62.306 1.078 0 1.183-.361 2.47-1.085 3.868-.724 1.399-1.503 2.094-2.317 2.094a1.02 1.02 0 0 1-.828-.41c-.215-.271-.326-.633-.326-1.078 0-1.17.368-2.456 1.099-3.848.73-1.39 1.51-2.087 2.33-2.087.341 0 .62.126.821.39v-.007Zm-10.526.821c0 1.593-1.05 2.678-3.151 3.27 0-1.322.244-2.393.737-3.214.494-.828 1.01-1.239 1.552-1.239.57 0 .862.397.862 1.183Zm-7.11-6.86c0 1.037-.32 2.268-.973 3.709a15.096 15.096 0 0 1-2.533 3.888c.557-2.72 1.127-4.828 1.705-6.337.577-1.51 1.022-2.268 1.322-2.268.139 0 .257.09.347.278.09.181.133.431.133.73Zm44.81 10.992v1.413c-1.893 2.003-3.52 2.998-4.87 2.998-.55 0-.995-.195-1.329-.577-.334-.383-.508-.905-.508-1.552 0-.876.362-2.219 1.085-4.02.383-.968.578-1.587.578-1.844 0-.258-.104-.397-.306-.397-.112 0-.264.056-.452.174a5.438 5.438 0 0 0-.606.48c-.201.188-.43.417-.688.689-.223.23-.46.494-.71.786l-.689.8c-.306.369-.494.758-.563 1.169a18.11 18.11 0 0 0-.244 1.92 29.78 29.78 0 0 0-.034 1.76l-2.72.64c-.091-1.106-.133-1.927-.133-2.47 0-.153.007-.299.014-.452-2.003 1.94-3.555 2.922-4.647 2.922-.5 0-.925-.209-1.266-.633-.341-.425-.515-.946-.515-1.566 0-.173.02-.354.049-.542 2.087-2.505 3.743-5.204 4.946-7.98l.278-.014-1.14 3.145c-.474 1.329-.787 2.233-.926 2.713s-.209.904-.209 1.273c0 .348.084.62.237.821.16.209.376.306.647.306.292 0 .577-.097.849-.299.271-.202.876-.758 1.815-1.663.077-.612.188-1.203.341-1.78.306-1.183.8-2.505 1.482-3.987l2.998-.577c-.633 1.697-1.043 3.033-1.238 4.007 1.343-1.503 2.414-2.54 3.2-3.117.787-.577 1.49-.862 2.108-.862.418 0 .766.16 1.044.473.278.313.417.71.417 1.182 0 .786-.355 2.08-1.057 3.882-.487 1.238-.724 2.039-.724 2.407 0 .494.202.738.605.738.599 0 1.573-.793 2.909-2.373l-.028.007Z"/>
</svg>
