<svg xmlns="http://www.w3.org/2000/svg" width="83" height="48" fill="none" viewBox="0 0 83 48">
  <path fill-rule="evenodd" d="M70.028 3.888A3.886 3.886 0 0 0 66.136 0a3.894 3.894 0 0 0-3.892 3.888v33.696a3.891 3.891 0 0 0 3.892 3.888h12.972A3.893 3.893 0 0 0 83 37.584a3.886 3.886 0 0 0-3.892-3.888h-9.08V3.888ZM57.055 20.736c0 6.843-1.333 11.996-3.679 15.448l5.137 5.133a3.888 3.888 0 0 1-4.242 6.367 3.892 3.892 0 0 1-1.263-.872l-5.874-5.869a12.648 12.648 0 0 1-3.7.53c-8.172 0-13.62-6.911-13.62-20.737C29.813 6.91 35.26 0 43.433 0s13.621 6.91 13.621 20.736ZM46.9 31.882c1.152-1.67 2.372-5.08 2.372-11.14 0-6.056-1.22-9.467-2.372-11.141-.908-1.317-1.899-1.815-3.466-1.815-1.567 0-2.558.498-3.466 1.815-1.152 1.674-2.372 5.085-2.372 11.146 0 6.05 1.22 9.465 2.372 11.135.908 1.317 1.899 1.82 3.466 1.82 1.567 0 2.558-.503 3.466-1.82ZM13.27.01c-3.574 0-6.666 1.291-8.83 3.697-2.112 2.358-3.025 5.417-3.025 8.486 0 3.795 1.691 6.635 3.938 8.595 2.128 1.856 4.712 2.908 6.772 3.546 2.065.632 3.55 1.125 4.618 1.928.763.586 1.401 1.38 1.401 3.24 0 1.504-.566 2.426-1.313 3.054a5.608 5.608 0 0 1-3.56 1.15c-1.047 0-2.272-.482-3.414-1.518a7.257 7.257 0 0 1-2.195-3.546 3.889 3.889 0 0 0-4.634-2.825 3.892 3.892 0 0 0-2.952 4.551c.66 2.887 2.35 5.594 4.556 7.584 2.21 2.001 5.22 3.53 8.64 3.53 2.999 0 6.107-.933 8.546-2.954 2.517-2.1 4.104-5.215 4.104-9.02 0-4.37-1.826-7.43-4.483-9.44-2.252-1.706-4.992-2.54-6.777-3.09l-.244-.078c-1.608-.493-3.004-1.146-3.943-1.97a3.37 3.37 0 0 1-1.277-2.737c0-1.576.467-2.654 1.038-3.292.514-.57 1.401-1.115 3.036-1.115 1.67 0 2.584.514 3.175 1.068.675.638 1.21 1.623 1.557 2.903a3.889 3.889 0 0 0 4.736 2.663 3.89 3.89 0 0 0 2.783-4.664c-.587-2.177-1.687-4.624-3.731-6.547C19.669 1.203 16.804.01 13.27.01Z" clip-rule="evenodd"/>
</svg>
