<svg xmlns="http://www.w3.org/2000/svg" width="48" height="48" fill="none" viewBox="0 0 48 48">
  <path d="M14.4 7.2h19.2a7.2 7.2 0 0 1 7.2 7.2v19.2a7.2 7.2 0 0 1-7.2 7.2H14.4a7.2 7.2 0 0 1-7.2-7.2V14.4a7.2 7.2 0 0 1 7.2-7.2Zm0 4.8a2.4 2.4 0 0 0-2.4 2.4v19.2a2.4 2.4 0 0 0 2.4 2.4h19.2a2.4 2.4 0 0 0 2.4-2.4V14.4a2.4 2.4 0 0 0-2.4-2.4H14.4Zm4.8 4.8h9.6a2.4 2.4 0 0 1 2.4 2.4v9.6a2.4 2.4 0 0 1-2.4 2.4h-9.6a2.4 2.4 0 0 1-2.4-2.4v-9.6a2.4 2.4 0 0 1 2.4-2.4Zm2.4 4.8v4.8h4.8v-4.8h-4.8ZM14.4 0a2.4 2.4 0 0 1 2.4 2.4v4.8a2.4 2.4 0 0 1-4.8 0V2.4A2.4 2.4 0 0 1 14.4 0Zm-12 12h4.8a2.4 2.4 0 0 1 0 4.8H2.4a2.4 2.4 0 0 1 0-4.8Zm38.4 0h4.8a2.4 2.4 0 0 1 0 4.8h-4.8a2.4 2.4 0 0 1 0-4.8ZM2.4 21.6h4.8a2.4 2.4 0 0 1 0 4.8H2.4a2.4 2.4 0 0 1 0-4.8Zm38.4 0h4.8a2.4 2.4 0 0 1 0 4.8h-4.8a2.4 2.4 0 0 1 0-4.8ZM2.4 31.2h4.8a2.4 2.4 0 0 1 0 4.8H2.4a2.4 2.4 0 0 1 0-4.8Zm38.4 0h4.8a2.4 2.4 0 0 1 0 4.8h-4.8a2.4 2.4 0 0 1 0-4.8Zm-26.4 7.2a2.4 2.4 0 0 1 2.4 2.4v4.8a2.4 2.4 0 0 1-4.8 0v-4.8a2.4 2.4 0 0 1 2.4-2.4ZM33.6 0A2.4 2.4 0 0 1 36 2.4v4.8a2.4 2.4 0 0 1-4.8 0V2.4A2.4 2.4 0 0 1 33.6 0Zm0 38.4a2.4 2.4 0 0 1 2.4 2.4v4.8a2.4 2.4 0 0 1-4.8 0v-4.8a2.4 2.4 0 0 1 2.4-2.4ZM24 0a2.4 2.4 0 0 1 2.4 2.4v4.8a2.4 2.4 0 0 1-4.8 0V2.4A2.4 2.4 0 0 1 24 0Zm0 38.4a2.4 2.4 0 0 1 2.4 2.4v4.8a2.4 2.4 0 0 1-4.8 0v-4.8a2.4 2.4 0 0 1 2.4-2.4Z"/>
</svg>
