<svg xmlns="http://www.w3.org/2000/svg" width="48" height="48" fill="none" viewBox="0 0 48 48">
  <path d="M43.314 0H4.686A4.687 4.687 0 0 0 0 4.688v38.624A4.69 4.69 0 0 0 4.686 48h38.628A4.686 4.686 0 0 0 48 43.312V4.688A4.687 4.687 0 0 0 43.314 0Zm-15.47 26.624h-6v17.157h-4.78V26.624h-6.002v-3.843h16.781v3.843Zm15.47 14.072c-.376.845-1.02 1.472-1.782 1.97a8.2 8.2 0 0 1-2.624 1.03 15.394 15.394 0 0 1-3.188.32c-1.1.003-2.199-.095-3.28-.293a10.15 10.15 0 0 1-2.72-.88v-4.504l-.178-.142.178-.04v.182a8.89 8.89 0 0 0 2.633 1.453c.94.355 1.97.533 3.001.533.656 0 1.154-.056 1.595-.16.397-.089.776-.24 1.124-.448a1.88 1.88 0 0 0 .667-.674 1.842 1.842 0 0 0-.141-1.968 3.496 3.496 0 0 0-.937-.894 8.16 8.16 0 0 0-1.409-.786c-.56-.254-1.132-.518-1.78-.779-1.594-.75-2.851-1.499-3.656-2.533-.815-.934-1.218-2.155-1.218-3.56 0-1.126.216-2.027.655-2.814.468-.842 1.021-1.461 1.782-1.968.75-.514 1.593-.89 2.625-1.125a14.113 14.113 0 0 1 3.188-.355c1.124 0 2.063.064 2.906.195.842.133 1.63.339 2.343.61v4.406a6.25 6.25 0 0 0-1.124-.645 10.417 10.417 0 0 0-2.628-.734 8.258 8.258 0 0 0-1.218-.088 6.602 6.602 0 0 0-1.498.152c-.398.078-.78.224-1.127.43a2.152 2.152 0 0 0-.704.666 1.582 1.582 0 0 0-.252.872c0 .345.094.657.282.936.186.27.452.534.799.79.308.242.73.488 1.218.73.561.243 1.068.488 1.688.742.842.354 1.592.749 2.248 1.125.658.373 1.21.813 1.687 1.312a4.423 4.423 0 0 1 1.127 1.688c.255.656.385 1.395.385 2.248 0 1.219-.293 2.157-.667 3Z"/>
</svg>
