<svg xmlns="http://www.w3.org/2000/svg" width="43" height="48" fill="none" viewBox="0 0 43 48">
  <path d="m23.463 8.588 7.6 4.386c.272.154.282.58 0 .734l-9.03 5.216a.84.84 0 0 1-.85 0l-9.03-5.216c-.278-.148-.282-.586 0-.734l7.594-4.386V0L.357 11.196v22.39l7.434-4.292v-8.77c-.004-.314.364-.538.636-.368l9.03 5.214a.85.85 0 0 1 .428.736v10.426c.004.312-.362.536-.636.368l-7.6-4.386-7.434 4.29L21.605 48l19.39-11.196-7.434-4.29-7.6 4.384c-.268.164-.646-.048-.636-.366V26.106a.85.85 0 0 1 .428-.736l9.03-5.214c.268-.164.644.044.636.368v8.77l7.434 4.292v-22.39L23.465 0l-.002 8.588Z"/>
</svg>
