<svg xmlns="http://www.w3.org/2000/svg" width="49" height="48" fill="none" viewBox="0 0 49 48">
  <path d="M24.853 0c-13.254 0-24 10.746-24 24s10.746 24 24 24 24-10.746 24-24-10.746-24-24-24Zm0 3.692c11.19.014 20.256 9.09 20.256 20.282 0 11.202-9.08 20.282-20.282 20.282S4.545 35.176 4.545 23.974c0-5.6 2.27-10.67 5.94-14.34a20.244 20.244 0 0 1 14.352-5.94l.016-.002Zm0 5.54C16.069 10.78 8.237 18.88 8.237 27.692c4.298-7.588 7.168-8.134 7.962-8.134.794 0 1.212.412 1.212 1.326v11.308c0 1.406-2.732 1.176-3.636 1.038 3.34 4.97 11.078 5.54 11.078 5.54l3.692-3.692 3.692 1.846c5.828-2.668 9.23-8.38 9.23-9.23a11.054 11.054 0 0 1-5.462 3.672l-.078.02c-.49 0-1.846-.252-1.846-.924V17.076c0-1.162 2.684-4.708 3.692-6-6.664 1.746-8.596 4.788-8.596 4.788s-.506-1.096-2.48-1.096a5.99 5.99 0 0 1 1.844 3.664l.002.028v11.308a10.017 10.017 0 0 1-3.626 1.602l-.068.012c-1.28 0-1.904-.52-1.904-1.5s.058-13.268.058-13.268-1.846.678-1.846-3.116c0-1.898 3.692-4.27 3.692-4.27l.004.004Z"/>
</svg>
