<svg xmlns="http://www.w3.org/2000/svg" width="503" height="95" fill="none" viewBox="0 0 503 95">
  <path d="M51.266 93V72.008H.706v-14.08L48.578 3.4h20.224v53.888H79.81v14.72H68.802V93H51.266ZM21.058 57.288h30.208V23.112L21.058 57.288Zm106.093 37.12c-7.765 0-14.635-1.92-20.608-5.76-5.888-3.925-10.496-9.344-13.824-16.256-3.243-6.997-4.864-15.061-4.864-24.192 0-9.216 1.621-17.28 4.864-24.192 3.328-6.912 7.936-12.288 13.824-16.128 5.973-3.925 12.843-5.888 20.608-5.888 7.851 0 14.72 1.963 20.608 5.888 5.973 3.84 10.581 9.216 13.824 16.128 3.328 6.912 4.992 14.976 4.992 24.192 0 9.13-1.664 17.195-4.992 24.192-3.243 6.912-7.851 12.33-13.824 16.256-5.888 3.84-12.757 5.76-20.608 5.76Zm0-15.232c4.608 0 8.576-1.237 11.904-3.712 3.328-2.475 5.888-6.059 7.68-10.752 1.877-4.693 2.816-10.197 2.816-16.512 0-6.4-.939-11.904-2.816-16.512-1.792-4.693-4.352-8.277-7.68-10.752-3.328-2.475-7.296-3.712-11.904-3.712-4.523 0-8.448 1.237-11.776 3.712-3.328 2.475-5.931 6.059-7.808 10.752-1.792 4.608-2.688 10.112-2.688 16.512 0 6.315.896 11.819 2.688 16.512 1.877 4.693 4.48 8.277 7.808 10.752 3.328 2.475 7.253 3.712 11.776 3.712ZM225.016 93V72.008h-50.56v-14.08L222.328 3.4h20.224v36.38H262V54.5h-19.448V93h-17.536Zm-30.208-35.712h30.208V23.112l-30.208 34.176Z"/>
  <path d="M225.016 93V3.4h68.232v16.128H242.56l-.008 20.252H262V54.5h-19.448l.008 38.5h-17.544Zm77.707 0V3.4L320.259.456V93h-17.536Zm63.762 1.28c-6.656 0-12.672-1.536-18.048-4.608-5.376-3.072-9.643-7.21-12.8-12.416-3.157-5.205-4.736-11.05-4.736-17.536 0-6.485 1.536-12.33 4.608-17.536 3.157-5.29 7.424-9.472 12.8-12.544 5.461-3.072 11.52-4.608 18.176-4.608 6.656 0 12.672 1.536 18.048 4.608 5.461 3.072 9.728 7.253 12.8 12.544 3.157 5.205 4.736 11.05 4.736 17.536 0 6.485-1.579 12.33-4.736 17.536-3.072 5.205-7.296 9.344-12.672 12.416-5.376 3.072-11.435 4.608-18.176 4.608Zm0-15.232c3.499 0 6.613-.853 9.344-2.56 2.816-1.707 5.035-4.01 6.656-6.912 1.707-2.987 2.56-6.272 2.56-9.856 0-3.67-.853-6.955-2.56-9.856-1.621-2.901-3.84-5.205-6.656-6.912-2.731-1.792-5.845-2.688-9.344-2.688-3.413 0-6.528.896-9.344 2.688-2.816 1.707-5.035 4.01-6.656 6.912-1.621 2.901-2.432 6.187-2.432 9.856 0 3.584.811 6.87 2.432 9.856 1.621 2.901 3.84 5.205 6.656 6.912 2.816 1.707 5.931 2.56 9.344 2.56ZM424.27 93l-18.304-66.688h16.64l11.008 43.008 13.312-43.008h14.72l13.184 43.136 11.008-43.136h16.384L483.79 93h-16.768l-12.928-42.624L441.166 93H424.27Z"/>
</svg>
