<svg xmlns="http://www.w3.org/2000/svg" width="32" height="32" fill="none" viewBox="0 0 32 32">
  <path d="M16 27.2a1.6 1.6 0 0 1 1.6 1.6v1.6a1.6 1.6 0 0 1-3.201 0v-1.6a1.6 1.6 0 0 1 1.6-1.6Zm10.182-3.28 1.131 1.131a1.6 1.6 0 0 1-2.262 2.263l-1.131-1.132a1.6 1.6 0 0 1 2.262-2.262Zm-20.366 0a1.6 1.6 0 0 1 2.395 2.112l-.132.15-1.132 1.132a1.6 1.6 0 0 1-2.395-2.112l.133-.15 1.131-1.132ZM16 6.4a9.6 9.6 0 1 1 0 19.201A9.6 9.6 0 0 1 16 6.4Zm-12.8 8a1.6 1.6 0 0 1 .187 3.189l-.188.011h-1.6a1.6 1.6 0 0 1-.187-3.189l.187-.011h1.6Zm27.2 0a1.6 1.6 0 1 1 0 3.2h-1.6a1.6 1.6 0 0 1 0-3.2h1.6ZM4.686 4.686a1.6 1.6 0 0 1 2.112-.132l.15.132L8.08 5.818a1.6 1.6 0 0 1-2.112 2.395l-.15-.133-1.132-1.131a1.6 1.6 0 0 1 0-2.263Zm22.628 0a1.6 1.6 0 0 1 0 2.263l-1.13 1.131a1.6 1.6 0 1 1-2.263-2.262l1.13-1.132a1.6 1.6 0 0 1 2.263 0ZM16 0a1.6 1.6 0 0 1 1.6 1.6v1.6a1.6 1.6 0 0 1-3.2 0V1.6A1.6 1.6 0 0 1 16 0Z"/>
</svg>
