<svg xmlns="http://www.w3.org/2000/svg" width="29" height="32" fill="none" viewBox="0 0 29 32">
  <path d="M0 28.343V11.886c0-.58.129-1.128.386-1.646A3.515 3.515 0 0 1 1.45 8.96L12.325.731A3.473 3.473 0 0 1 14.5 0c.816 0 1.54.244 2.175.731L27.55 8.96c.453.335.808.762 1.066 1.28.257.518.385 1.067.384 1.646v16.457a3.539 3.539 0 0 1-1.066 2.584c-.71.716-1.563 1.074-2.559 1.073h-5.438c-.513 0-.943-.175-1.29-.527a1.786 1.786 0 0 1-.522-1.302V21.03c0-.518-.174-.953-.522-1.302a1.755 1.755 0 0 0-1.29-.527h-3.625c-.514 0-.944.175-1.291.527-.347.35-.52.785-.522 1.302v9.142c0 .518-.174.953-.522 1.304a1.739 1.739 0 0 1-1.29.525H3.625c-.997 0-1.85-.358-2.56-1.073A3.544 3.544 0 0 1 0 28.343Z"/>
</svg>
