<svg xmlns="http://www.w3.org/2000/svg" width="64" height="64" fill="none" viewBox="0 0 64 64">
  <path fill="#FF5CCE" fill-rule="evenodd" d="M56.155.093a6.675 6.675 0 0 1 2.896.151 6.716 6.716 0 0 1 2.565 1.367 6.795 6.795 0 0 1 1.759 2.329c.411.896.625 1.872.625 2.86v40.198c0 2.994-.98 5.905-2.786 8.28a13.467 13.467 0 0 1-7.203 4.857 13.353 13.353 0 0 1-8.643-.573 13.515 13.515 0 0 1-6.511-5.767 13.714 13.714 0 0 1-1.69-8.577A13.654 13.654 0 0 1 41 37.375a13.425 13.425 0 0 1 7.769-3.867 13.36 13.36 0 0 1 8.495 1.706V20.403l-33.684 5.67v24.326c0 .204-.017.4-.05.591a11.994 11.994 0 0 1-1.77 7.46 11.813 11.813 0 0 1-5.907 4.821c-2.442.905-5.112.97-7.594.182a11.798 11.798 0 0 1-6.128-4.532 11.986 11.986 0 0 1-2.118-7.366 11.968 11.968 0 0 1 2.772-7.14 11.77 11.77 0 0 1 6.511-3.952 11.687 11.687 0 0 1 7.547.88V12.467c0-1.61.565-3.168 1.596-4.396a6.722 6.722 0 0 1 4.032-2.313L56.155.093ZM23.579 19.178l33.684-5.669V6.8L23.58 12.47v6.71Z" clip-rule="evenodd"/>
</svg>
