<svg xmlns="http://www.w3.org/2000/svg" width="64" height="64" fill="none" viewBox="0 0 64 64">
  <path fill="#5CA0FF" d="M51.556 32a5.333 5.333 0 1 1 0-10.667 5.333 5.333 0 0 1 0 10.667ZM40.889 17.778a5.333 5.333 0 1 1 0-10.666 5.333 5.333 0 0 1 0 10.666Zm-17.778 0a5.333 5.333 0 1 1 0-10.667 5.333 5.333 0 0 1 0 10.667ZM12.444 32a5.333 5.333 0 1 1 0-10.667 5.333 5.333 0 0 1 0 10.667ZM32 0a32 32 0 1 0 0 64 5.333 5.333 0 0 0 5.333-5.333 5.22 5.22 0 0 0-1.386-3.556c-.818-.96-1.351-2.204-1.351-3.555a5.333 5.333 0 0 1 5.333-5.334h6.293A17.778 17.778 0 0 0 64 28.444C64 12.73 49.671 0 32 0Z"/>
</svg>
