<svg xmlns="http://www.w3.org/2000/svg" width="1920" height="494" fill="none" viewBox="0 0 1920 494">
  <path fill="#7F7DFF" d="M1920 .406c-79.25 154.512-327.1 343.77-830.94 172.442C719.282 47.108 163.417 330.7 0 439.684V494c70.667-32.168 537.213-285.25 1035.28-92.285C1507.13 584.52 1859.04 294.808 1920 43.121V.406Z"/>
  <path fill="#BABAFF" d="M1920 .406c-79.25 154.512-360.11 315.3-880.67 178.77C661.333 80.036 143.333 347.398 0 439.684v13.711S635.457 42.883 1124.15 255.641c319.1 138.923 662.52 10.547 795.85-240.996V.405Z"/>
  <path fill="#EEF" d="M1920 .406c-15.72 34.805-263.33 352.266-832.64 171.387C802 81.13 426.667 153.336 0 439.684 405.333 213.453 796 83.199 1127.33 211.871 1411.65 322.286 1825.42 209.762 1920 .406Z"/>
</svg>
