<svg xmlns="http://www.w3.org/2000/svg" width="1920" height="304" fill="none" viewBox="0 0 1920 304">
  <path fill="#7F7DFF" d="M956.667 121.208C1500.67 15.198 1746.67 101.737 1920 160.583v143.654H0V102.602c158.667 123.318 448.464 117.64 956.667 18.606Z"/>
  <path fill="#EEF" d="M888.667 99.575C1409.7-37.356 1786 85.729 1920 137.219c-38-53.222-528.22-206.683-944.666-100.818-160 40.673-756.667 223.702-975.333 40.674 29.333 60.144 264.666 186.49 888.666 22.5Z"/>
  <path fill="#BABAFF" d="M873.334 137.215C1526.13.83 1770 122.939 1920 160.58v-23.365c-119.33-59.28-279.12-99.306-464-107.739-212.67-9.7-299.52-6.59-659.333 83.078C322.667 230.68 52.667 156 0 77.073v25.526c19.111 68.366 220.534 171 873.334 34.616Z"/>
</svg>
