<svg xmlns="http://www.w3.org/2000/svg" width="1920" height="313" fill="none" viewBox="0 0 1920 313">
  <path fill="#5F5CFF" d="M957 125.5c544-106.01 789.67-14.762 963 44.084v143.654H0V111.603c158.667 123.318 448.797 112.93 957 13.897Z"/>
  <path fill="#DFDFFF" d="M888.667 108.576C1409.7-28.356 1787 112.499 1920 164 1755 35.977 1391.78-60.463 975.334 45.402 815.334 86.075 218.667 269.104.001 86.076c29.333 60.144 264.666 186.49 888.666 22.5Z"/>
  <path fill="#9D9BFF" d="M873.334 146.216C1526.13 9.831 1776.5 126.5 1920 169.581V164c-132-80-279.12-117.09-464-125.523-212.67-9.7-299.52-6.59-659.333 83.078-474 118.126-744 43.446-796.667-35.481V111.6c19.111 68.365 220.534 171 873.334 34.616Z"/>
</svg>
