<svg width="38" height="38" viewBox="0 0 38 38" fill="none" xmlns="http://www.w3.org/2000/svg">
<g id="State=off">
<path id="night-off-base" d="M37.3694 22.1144C37.0933 21.8379 36.7471 21.6417 36.368 21.5469C35.9889 21.4522 35.5911 21.4624 35.2173 21.5765C32.6064 22.3646 29.8306 22.4298 27.1856 21.7652C24.5406 21.1007 22.1253 19.7313 20.1972 17.8029C18.2691 15.8745 16.9003 13.4593 16.2366 10.8146C15.573 8.16986 15.6392 5.3947 16.4284 2.78469C16.5436 2.41087 16.5546 2.01274 16.4603 1.63312C16.3661 1.2535 16.1701 0.90675 15.8934 0.63017C15.6168 0.353589 15.27 0.157638 14.8903 0.0633911C14.5105 -0.0308561 14.1123 -0.019834 13.7384 0.0952723C9.8117 1.30192 6.36577 3.71622 3.89115 6.99452C1.72713 9.87022 0.407453 13.2919 0.0802149 16.8757C-0.247024 20.4595 0.431119 24.0635 2.03855 27.2834C3.64598 30.5034 6.1191 33.2117 9.1804 35.1047C12.2417 36.9976 15.77 38.0002 19.3695 37.9999C23.572 38.0122 27.6625 36.6461 31.0137 34.111C34.291 31.6345 36.7034 28.1874 37.9074 24.2606C38.0205 23.8877 38.0302 23.4911 37.9354 23.1131C37.8407 22.7351 37.645 22.3899 37.3694 22.1144ZM28.4241 30.6739C25.5234 32.8572 21.9316 33.9195 18.3097 33.6654C14.6877 33.4113 11.2795 31.858 8.71209 29.2912C6.14471 26.7244 4.59099 23.3169 4.33686 19.6958C4.08273 16.0747 5.14529 12.4836 7.329 9.58354C8.47806 8.06395 9.9021 6.77341 11.5272 5.77891C11.4949 6.2379 11.4788 6.69869 11.4788 7.16127C11.4845 12.2951 13.5269 17.2171 17.1579 20.8473C20.7889 24.4774 25.712 26.5194 30.847 26.5251C31.3096 26.5251 31.7705 26.5089 32.2296 26.4767C31.2354 28.1018 29.9445 29.5256 28.4241 30.6739Z" fill="#333333"/>
</g>
</svg>
