<svg width="38" height="38" viewBox="0 0 38 38" fill="none" xmlns="http://www.w3.org/2000/svg">
<g id="State=hover">
<path id="night-on-hover" d="M36.368 21.5469C36.7471 21.6417 37.0933 21.8379 37.3694 22.1144C37.645 22.3899 37.8407 22.7351 37.9354 23.1131C38.0302 23.4911 38.0205 23.8877 37.9074 24.2606C36.7034 28.1874 34.291 31.6345 31.0137 34.111C27.6625 36.6461 23.572 38.0123 19.3695 37.9999C15.77 38.0002 12.2417 36.9976 9.1804 35.1047C6.1191 33.2117 3.64598 30.5034 2.03855 27.2834C0.431119 24.0635 -0.247024 20.4595 0.0802149 16.8757C0.407453 13.2919 1.72713 9.87022 3.89115 6.99452C6.36577 3.71622 9.8117 1.30192 13.7384 0.0952723C14.1123 -0.019834 14.5105 -0.0308561 14.8903 0.0633911C15.27 0.157638 15.6168 0.353589 15.8934 0.63017C16.1701 0.90675 16.3661 1.2535 16.4603 1.63312C16.5546 2.01273 16.5436 2.41087 16.4284 2.78469C15.6392 5.3947 15.573 8.16986 16.2366 10.8146C16.9003 13.4593 18.2691 15.8745 20.1972 17.8029C22.1253 19.7313 24.5406 21.1007 27.1856 21.7652C29.8306 22.4298 32.6064 22.3646 35.2173 21.5765C35.5911 21.4624 35.9889 21.4522 36.368 21.5469Z" fill="#333333"/>
</g>
</svg>
